<?xml version="1.0" encoding="iso-8859-1"?>
<!-- Uploaded to: SVG Repo, www.svgrepo.com, Generator: SVG Repo Mixer Tools -->
<svg height="800px" width="800px" version="1.1" id="Layer_1" xmlns="http://www.w3.org/2000/svg" xmlns:xlink="http://www.w3.org/1999/xlink" 
	 viewBox="0 0 512 512" xml:space="preserve">
<circle style="fill:#E6F3FF;" cx="256" cy="256" r="256"/>
<path style="fill:#CFDBE6;" d="M507.392,304.493L406.616,203.717l-91.448,93.694l-90.229-90.229l-35.021,30.058l-81.403,74.021
	L305.559,507.19C407.542,487.183,487.807,406.628,507.392,304.493z"/>
<circle style="fill:#2C9984;" cx="163.84" cy="256" r="78.214"/>
<path style="fill:#1C7261;" d="M163.842,177.778c-0.121,0-0.238,0.009-0.357,0.009v156.425c0.119,0,0.238,0.009,0.357,0.009
	c43.201,0,78.222-35.021,78.222-78.222S207.043,177.778,163.842,177.778z"/>
<circle style="fill:#90DFAA;" cx="163.84" cy="256" r="68.148"/>
<path style="fill:#7DC692;" d="M163.842,187.852c-0.121,0-0.238,0.009-0.357,0.009v136.278c0.119,0,0.238,0.009,0.357,0.009
	c37.638,0,68.148-30.511,68.148-68.148S201.48,187.852,163.842,187.852z"/>
<path style="fill:#2C9984;" d="M163.842,229.467c-2.857,0-5.172-2.315-5.172-5.172v-15.408c0-2.857,2.315-5.172,5.172-5.172
	s5.172,2.315,5.172,5.172v15.408C169.013,227.152,166.698,229.467,163.842,229.467z"/>
<path style="fill:#1C7261;" d="M163.842,203.717c-0.122,0-0.238,0.028-0.357,0.036v25.679c0.121,0.009,0.234,0.036,0.357,0.036
	c2.857,0,5.172-2.315,5.172-5.172v-15.408C169.013,206.033,166.698,203.717,163.842,203.717z"/>
<path style="fill:#2C9984;" d="M163.842,308.283c-2.857,0-5.172-2.315-5.172-5.172v-15.408c0-2.857,2.315-5.172,5.172-5.172
	s5.172,2.315,5.172,5.172v15.408C169.013,305.967,166.698,308.283,163.842,308.283z"/>
<g>
	<path style="fill:#1C7261;" d="M163.842,282.533c-0.122,0-0.238,0.028-0.357,0.036v25.679c0.121,0.009,0.234,0.036,0.357,0.036
		c2.857,0,5.172-2.315,5.172-5.172v-15.408C169.013,284.848,166.698,282.533,163.842,282.533z"/>
	<path style="fill:#1C7261;" d="M210.953,261.172L210.953,261.172h-15.408c-2.857,0-5.172-2.315-5.172-5.172
		s2.315-5.172,5.172-5.172l0,0h15.408c2.857,0,5.172,2.315,5.172,5.172S213.809,261.172,210.953,261.172z"/>
</g>
<path style="fill:#2C9984;" d="M132.137,261.172h-15.408c-2.857,0-5.172-2.315-5.172-5.172s2.315-5.172,5.172-5.172h15.408
	c2.857,0,5.172,2.315,5.172,5.172S134.994,261.172,132.137,261.172z"/>
<path style="fill:#1C7261;" d="M186.259,238.754c-1.324,0-2.648-0.505-3.656-1.515c-2.02-2.019-2.02-5.294,0-7.315l10.893-10.895
	c2.02-2.019,5.296-2.02,7.315,0c2.02,2.019,2.02,5.294,0,7.315l-10.893,10.895C188.907,238.249,187.583,238.754,186.259,238.754z"/>
<g>
	<path style="fill:#2C9984;" d="M130.529,294.486c-1.324,0-2.648-0.505-3.656-1.515c-2.02-2.02-2.02-5.294,0-7.315l10.895-10.895
		c2.019-2.019,5.294-2.019,7.313,0c2.02,2.02,2.02,5.294,0,7.315l-10.895,10.895C133.177,293.981,131.853,294.486,130.529,294.486z"
		/>
	<path style="fill:#2C9984;" d="M141.424,238.754c-1.324,0-2.648-0.505-3.656-1.515l-10.895-10.895c-2.02-2.02-2.02-5.294,0-7.315
		c2.019-2.019,5.294-2.019,7.313,0l10.895,10.895c2.02,2.02,2.02,5.294,0,7.315C144.072,238.249,142.748,238.754,141.424,238.754z"
		/>
</g>
<path style="fill:#1C7261;" d="M197.154,294.484c-1.324,0-2.648-0.505-3.656-1.515l-10.895-10.895c-2.02-2.02-2.02-5.294,0-7.315
	c2.019-2.019,5.294-2.019,7.313,0l10.895,10.895c2.02,2.02,2.02,5.294,0,7.315C199.801,293.979,198.477,294.484,197.154,294.484z"/>
<circle style="fill:#2C9984;" cx="348.436" cy="256" r="78.214"/>
<path style="fill:#267263;" d="M426.667,256c0-43.177-34.983-78.181-78.15-78.221V334.22
	C391.683,334.181,426.667,299.177,426.667,256z"/>
<circle style="fill:#90DFAA;" cx="348.436" cy="256" r="68.148"/>
<path style="fill:#7BBF8E;" d="M416.592,256c0-37.612-30.472-68.106-68.075-68.146v136.294
	C386.12,324.106,416.592,293.612,416.592,256z"/>
<path style="fill:#2C9984;" d="M348.444,229.467c-2.857,0-5.172-2.315-5.172-5.172v-15.408c0-2.857,2.315-5.172,5.172-5.172
	s5.172,2.315,5.172,5.172v15.408C353.616,227.152,351.301,229.467,348.444,229.467z"/>
<path style="fill:#267263;" d="M348.517,203.724v25.736c2.822-0.04,5.099-2.332,5.099-5.165v-15.408
	C353.616,206.057,351.339,203.764,348.517,203.724z"/>
<path style="fill:#2C9984;" d="M348.444,308.283c-2.857,0-5.172-2.315-5.172-5.172v-15.408c0-2.857,2.315-5.172,5.172-5.172
	s5.172,2.315,5.172,5.172v15.408C353.616,305.967,351.301,308.283,348.444,308.283z"/>
<g>
	<path style="fill:#267263;" d="M348.517,282.54v25.736c2.822-0.04,5.099-2.332,5.099-5.165v-15.408
		C353.616,284.872,351.339,282.579,348.517,282.54z"/>
	<path style="fill:#267263;" d="M395.555,261.172L395.555,261.172h-15.408c-2.857,0-5.172-2.315-5.172-5.172
		s2.315-5.172,5.172-5.172l0,0h15.408c2.857,0,5.172,2.315,5.172,5.172S398.412,261.172,395.555,261.172z"/>
</g>
<path style="fill:#2C9984;" d="M316.74,261.172h-15.408c-2.857,0-5.172-2.315-5.172-5.172s2.315-5.172,5.172-5.172h15.408
	c2.857,0,5.172,2.315,5.172,5.172S319.597,261.172,316.74,261.172z"/>
<path style="fill:#267263;" d="M370.862,238.754c-1.324,0-2.648-0.505-3.656-1.515c-2.02-2.02-2.02-5.294,0-7.315l10.895-10.895
	c2.019-2.019,5.294-2.019,7.313,0c2.02,2.02,2.02,5.294,0,7.315l-10.895,10.895C373.51,238.249,372.184,238.754,370.862,238.754z"/>
<g>
	<path style="fill:#2C9984;" d="M315.132,294.486c-1.324,0-2.648-0.505-3.656-1.515c-2.02-2.02-2.02-5.294,0-7.315l10.895-10.895
		c2.019-2.019,5.294-2.019,7.313,0c2.02,2.02,2.02,5.294,0,7.315l-10.895,10.895C317.78,293.981,316.456,294.486,315.132,294.486z"
		/>
	<path style="fill:#2C9984;" d="M326.027,238.754c-1.324,0-2.648-0.505-3.656-1.515l-10.895-10.895c-2.02-2.02-2.02-5.294,0-7.315
		c2.019-2.019,5.294-2.019,7.313,0l10.895,10.895c2.02,2.02,2.02,5.294,0,7.315C328.675,238.249,327.351,238.754,326.027,238.754z"
		/>
</g>
<path style="fill:#267263;" d="M381.757,294.484c-1.324,0-2.648-0.505-3.656-1.515l-10.895-10.895c-2.02-2.02-2.02-5.294,0-7.315
	c2.019-2.019,5.294-2.019,7.313,0l10.895,10.895c2.02,2.02,2.02,5.294,0,7.315C384.403,293.979,383.079,294.484,381.757,294.484z"/>
</svg>